<svg width="337" height="53" viewBox="0 0 337 53" fill="none" xmlns="http://www.w3.org/2000/svg">
<path d="M2.64062 32.8539V10.1039H10.0781C12.5469 10.1039 14.401 10.6143 15.6406 11.6351C16.8906 12.6559 17.5156 14.1664 17.5156 16.1664C17.5156 17.2289 17.2135 18.1716 16.6094 18.9945C16.0052 19.807 15.1823 20.4372 14.1406 20.8851C15.3698 21.2289 16.3385 21.8851 17.0469 22.8539C17.7656 23.8122 18.125 24.958 18.125 26.2914C18.125 28.333 17.4635 29.9372 16.1406 31.1039C14.8177 32.2705 12.9479 32.8539 10.5312 32.8539H2.64062ZM5.64062 22.2132V30.4007H10.5938C11.9896 30.4007 13.0885 30.0414 13.8906 29.3226C14.7031 28.5934 15.1094 27.5934 15.1094 26.3226C15.1094 23.583 13.6198 22.2132 10.6406 22.2132H5.64062ZM5.64062 19.807H10.1719C11.4844 19.807 12.5312 19.4789 13.3125 18.8226C14.1042 18.1664 14.5 17.2757 14.5 16.1507C14.5 14.9007 14.1354 13.9945 13.4062 13.432C12.6771 12.8591 11.5677 12.5726 10.0781 12.5726H5.64062V19.807ZM25.2656 32.8539H22.375V8.85385H25.2656V32.8539Z" fill="#3F51B5"/>
<ellipse cx="41.9669" cy="22.9654" rx="10.9669" ry="10.9654" fill="#FFD707"/>
<path d="M41.7745 15.078C37.5231 15.078 34.0785 18.5221 34.0785 22.773C34.0785 27.0238 37.5231 30.468 41.7745 30.468C46.026 30.468 49.4706 27.0238 49.4706 22.773C49.4706 18.5221 46.026 15.078 41.7745 15.078ZM46.2432 23.6418C46.2432 23.8466 46.0756 24.0141 45.8708 24.0141H43.0158V26.8687C43.0158 27.0735 42.8483 27.241 42.6434 27.241H40.9056C40.7008 27.241 40.5332 27.0735 40.5332 26.8687V24.0141H37.6783C37.4734 24.0141 37.3059 23.8466 37.3059 23.6418V21.9042C37.3059 21.6994 37.4734 21.5318 37.6783 21.5318H40.5332V18.6772C40.5332 18.4725 40.7008 18.3049 40.9056 18.3049H42.6434C42.8483 18.3049 43.0158 18.4725 43.0158 18.6772V21.5318H45.8708C46.0756 21.5318 46.2432 21.6994 46.2432 21.9042V23.6418Z" fill="#BB0A1E"/>
<ellipse cx="69.9669" cy="22.9654" rx="10.9669" ry="10.9654" fill="#FFD707"/>
<path d="M69.7745 15.078C65.5231 15.078 62.0785 18.5221 62.0785 22.773C62.0785 27.0238 65.5231 30.468 69.7745 30.468C74.026 30.468 77.4706 27.0238 77.4706 22.773C77.4706 18.5221 74.026 15.078 69.7745 15.078ZM74.2432 23.6418C74.2432 23.8466 74.0756 24.0141 73.8708 24.0141H71.0158V26.8687C71.0158 27.0735 70.8483 27.241 70.6434 27.241H68.9056C68.7008 27.241 68.5332 27.0735 68.5332 26.8687V24.0141H65.6783C65.4734 24.0141 65.3059 23.8466 65.3059 23.6418V21.9042C65.3059 21.6994 65.4734 21.5318 65.6783 21.5318H68.5332V18.6772C68.5332 18.4725 68.7008 18.3049 68.9056 18.3049H70.6434C70.8483 18.3049 71.0158 18.4725 71.0158 18.6772V21.5318H73.8708C74.0756 21.5318 74.2432 21.6994 74.2432 21.9042V23.6418Z" fill="#BB0A1E"/>
<path d="M86.5659 22.2601C86.5659 19.6664 87.1805 17.583 88.4097 16.0101C89.6388 14.4268 91.2482 13.6351 93.2378 13.6351C95.217 13.6351 96.7847 14.3122 97.9409 15.6664V6.85385H100.832V30.8539H98.1753L98.0347 29.0414C96.8784 30.458 95.269 31.1664 93.2065 31.1664C91.2482 31.1664 89.6493 30.3643 88.4097 28.7601C87.1805 27.1559 86.5659 25.0622 86.5659 22.4789V22.2601ZM89.4565 22.5882C89.4565 24.5049 89.8524 26.0049 90.644 27.0882C91.4357 28.1716 92.5295 28.7132 93.9253 28.7132C95.7586 28.7132 97.0972 27.8903 97.9409 26.2445V18.4789C97.0763 16.8851 95.7482 16.0882 93.9565 16.0882C92.5399 16.0882 91.4357 16.6351 90.644 17.7289C89.8524 18.8226 89.4565 20.4424 89.4565 22.5882ZM111.347 22.3695H103.722V20.0101H111.347V22.3695ZM113.472 22.2601C113.472 19.6664 114.087 17.583 115.316 16.0101C116.545 14.4268 118.154 13.6351 120.144 13.6351C122.123 13.6351 123.691 14.3122 124.847 15.6664V6.85385H127.738V30.8539H125.082L124.941 29.0414C123.785 30.458 122.175 31.1664 120.113 31.1664C118.154 31.1664 116.556 30.3643 115.316 28.7601C114.087 27.1559 113.472 25.0622 113.472 22.4789V22.2601ZM116.363 22.5882C116.363 24.5049 116.759 26.0049 117.55 27.0882C118.342 28.1716 119.436 28.7132 120.832 28.7132C122.665 28.7132 124.003 27.8903 124.847 26.2445V18.4789C123.983 16.8851 122.654 16.0882 120.863 16.0882C119.446 16.0882 118.342 16.6351 117.55 17.7289C116.759 18.8226 116.363 20.4424 116.363 22.5882ZM131.472 22.2445C131.472 20.5882 131.795 19.0986 132.441 17.7757C133.097 16.4528 134.003 15.432 135.16 14.7132C136.326 13.9945 137.654 13.6351 139.144 13.6351C141.446 13.6351 143.306 14.432 144.722 16.0257C146.149 17.6195 146.863 19.7393 146.863 22.3851V22.5882C146.863 24.2341 146.545 25.7132 145.91 27.0257C145.285 28.3278 144.384 29.3434 143.207 30.0726C142.04 30.8018 140.696 31.1664 139.175 31.1664C136.884 31.1664 135.024 30.3695 133.597 28.7757C132.181 27.182 131.472 25.0726 131.472 22.4476V22.2445ZM134.378 22.5882C134.378 24.4632 134.811 25.9684 135.675 27.1039C136.55 28.2393 137.717 28.807 139.175 28.807C140.644 28.807 141.811 28.2341 142.675 27.0882C143.54 25.932 143.972 24.3174 143.972 22.2445C143.972 20.3903 143.529 18.8903 142.644 17.7445C141.769 16.5882 140.602 16.0101 139.144 16.0101C137.717 16.0101 136.566 16.5778 135.691 17.7132C134.816 18.8486 134.378 20.4736 134.378 22.5882ZM153.222 13.9476L153.316 16.0726C154.608 14.4476 156.295 13.6351 158.378 13.6351C161.951 13.6351 163.753 15.6507 163.785 19.682V30.8539H160.894V19.6664C160.884 18.4476 160.602 17.5466 160.05 16.9632C159.509 16.3799 158.66 16.0882 157.503 16.0882C156.566 16.0882 155.743 16.3382 155.035 16.8382C154.326 17.3382 153.774 17.9945 153.378 18.807V30.8539H150.488V13.9476H153.222ZM167.378 22.2445C167.378 20.5882 167.701 19.0986 168.347 17.7757C169.003 16.4528 169.91 15.432 171.066 14.7132C172.233 13.9945 173.561 13.6351 175.05 13.6351C177.352 13.6351 179.212 14.432 180.628 16.0257C182.056 17.6195 182.769 19.7393 182.769 22.3851V22.5882C182.769 24.2341 182.451 25.7132 181.816 27.0257C181.191 28.3278 180.29 29.3434 179.113 30.0726C177.946 30.8018 176.602 31.1664 175.082 31.1664C172.79 31.1664 170.931 30.3695 169.503 28.7757C168.087 27.182 167.378 25.0726 167.378 22.4476V22.2445ZM170.285 22.5882C170.285 24.4632 170.717 25.9684 171.582 27.1039C172.457 28.2393 173.623 28.807 175.082 28.807C176.55 28.807 177.717 28.2341 178.582 27.0882C179.446 25.932 179.878 24.3174 179.878 22.2445C179.878 20.3903 179.436 18.8903 178.55 17.7445C177.675 16.5882 176.509 16.0101 175.05 16.0101C173.623 16.0101 172.472 16.5778 171.597 17.7132C170.722 18.8486 170.285 20.4736 170.285 22.5882ZM194.566 16.5414C194.128 16.4684 193.654 16.432 193.144 16.432C191.248 16.432 189.962 17.2393 189.285 18.8539V30.8539H186.394V13.9476H189.207L189.253 15.9007C190.201 14.3903 191.545 13.6351 193.285 13.6351C193.847 13.6351 194.274 13.708 194.566 13.8539V16.5414ZM207.082 26.3695C207.082 25.5882 206.785 24.9841 206.191 24.557C205.608 24.1195 204.582 23.7445 203.113 23.432C201.654 23.1195 200.493 22.7445 199.628 22.307C198.774 21.8695 198.139 21.3486 197.722 20.7445C197.316 20.1403 197.113 19.4216 197.113 18.5882C197.113 17.2028 197.696 16.0309 198.863 15.0726C200.04 14.1143 201.54 13.6351 203.363 13.6351C205.279 13.6351 206.832 14.1299 208.019 15.1195C209.217 16.1091 209.816 17.3747 209.816 18.9164H206.91C206.91 18.1247 206.571 17.4424 205.894 16.8695C205.227 16.2966 204.384 16.0101 203.363 16.0101C202.311 16.0101 201.488 16.2393 200.894 16.6976C200.3 17.1559 200.003 17.7549 200.003 18.4945C200.003 19.1924 200.279 19.7184 200.832 20.0726C201.384 20.4268 202.378 20.7653 203.816 21.0882C205.264 21.4111 206.436 21.7966 207.332 22.2445C208.227 22.6924 208.889 23.2341 209.316 23.8695C209.753 24.4945 209.972 25.2601 209.972 26.1664C209.972 27.6768 209.368 28.8903 208.16 29.807C206.951 30.7132 205.384 31.1664 203.457 31.1664C202.102 31.1664 200.904 30.9268 199.863 30.4476C198.821 29.9684 198.003 29.3018 197.41 28.4476C196.826 27.583 196.535 26.6507 196.535 25.6507H199.425C199.477 26.6195 199.863 27.3903 200.582 27.9632C201.311 28.5257 202.269 28.807 203.457 28.807C204.55 28.807 205.425 28.5882 206.082 28.1507C206.748 27.7028 207.082 27.1091 207.082 26.3695Z" fill="#3F51B5"/>
<path d="M83.3942 50.7769V39.4019H86.6051C87.5947 39.4019 88.4697 39.6207 89.2301 40.0582C89.9905 40.4957 90.5765 41.1181 90.9879 41.9254C91.4046 42.7326 91.6155 43.6597 91.6207 44.7066V45.4332C91.6207 46.5061 91.4124 47.4462 90.9957 48.2535C90.5843 49.0608 89.9931 49.6806 89.2223 50.1129C88.4567 50.5451 87.5634 50.7665 86.5426 50.7769H83.3942ZM84.8942 40.6363V49.5504H86.4723C87.6285 49.5504 88.527 49.191 89.1676 48.4722C89.8134 47.7535 90.1364 46.73 90.1364 45.4019V44.7379C90.1364 43.4462 89.8317 42.4436 89.2223 41.73C88.6181 41.0113 87.7587 40.6467 86.6442 40.6363H84.8942ZM93.2848 46.4722C93.2848 45.6441 93.4462 44.8993 93.7692 44.2379C94.0973 43.5764 94.5504 43.066 95.1285 42.7066C95.7119 42.3472 96.3759 42.1675 97.1207 42.1675C98.2718 42.1675 99.2015 42.566 99.9098 43.3629C100.623 44.1597 100.98 45.2196 100.98 46.5425V46.6441C100.98 47.467 100.821 48.2066 100.504 48.8629C100.191 49.5139 99.7405 50.0217 99.152 50.3863C98.5686 50.7509 97.8968 50.9332 97.1364 50.9332C95.9905 50.9332 95.0608 50.5347 94.3473 49.7379C93.639 48.941 93.2848 47.8863 93.2848 46.5738V46.4722ZM94.7379 46.6441C94.7379 47.5816 94.9541 48.3342 95.3864 48.9019C95.8239 49.4696 96.4072 49.7535 97.1364 49.7535C97.8707 49.7535 98.4541 49.467 98.8864 48.8941C99.3186 48.316 99.5348 47.5087 99.5348 46.4722C99.5348 45.5451 99.3134 44.7951 98.8707 44.2222C98.4332 43.6441 97.8499 43.355 97.1207 43.355C96.4072 43.355 95.8317 43.6389 95.3942 44.2066C94.9567 44.7743 94.7379 45.5868 94.7379 46.6441ZM104.16 42.3238L104.207 43.3863C104.852 42.5738 105.696 42.1675 106.738 42.1675C108.524 42.1675 109.425 43.1754 109.441 45.191V50.7769H107.996V45.1832C107.991 44.5738 107.85 44.1233 107.574 43.8316C107.303 43.5399 106.879 43.3941 106.3 43.3941C105.832 43.3941 105.42 43.5191 105.066 43.7691C104.712 44.0191 104.436 44.3472 104.238 44.7535V50.7769H102.793V42.3238H104.16ZM111.238 46.4722C111.238 45.6441 111.399 44.8993 111.722 44.2379C112.05 43.5764 112.504 43.066 113.082 42.7066C113.665 42.3472 114.329 42.1675 115.074 42.1675C116.225 42.1675 117.155 42.566 117.863 43.3629C118.576 44.1597 118.933 45.2196 118.933 46.5425V46.6441C118.933 47.467 118.774 48.2066 118.457 48.8629C118.144 49.5139 117.694 50.0217 117.105 50.3863C116.522 50.7509 115.85 50.9332 115.089 50.9332C113.944 50.9332 113.014 50.5347 112.3 49.7379C111.592 48.941 111.238 47.8863 111.238 46.5738V46.4722ZM112.691 46.6441C112.691 47.5816 112.907 48.3342 113.339 48.9019C113.777 49.4696 114.36 49.7535 115.089 49.7535C115.824 49.7535 116.407 49.467 116.839 48.8941C117.272 48.316 117.488 47.5087 117.488 46.4722C117.488 45.5451 117.267 44.7951 116.824 44.2222C116.386 43.6441 115.803 43.355 115.074 43.355C114.36 43.355 113.785 43.6389 113.347 44.2066C112.91 44.7743 112.691 45.5868 112.691 46.6441ZM124.832 43.6207C124.613 43.5842 124.376 43.566 124.121 43.566C123.173 43.566 122.53 43.9696 122.191 44.7769V50.7769H120.746V42.3238H122.152L122.175 43.3004C122.649 42.5451 123.321 42.1675 124.191 42.1675C124.472 42.1675 124.686 42.204 124.832 42.2769V43.6207ZM131.089 48.5347C131.089 48.1441 130.941 47.842 130.644 47.6285C130.352 47.4097 129.839 47.2222 129.105 47.066C128.376 46.9097 127.795 46.7222 127.363 46.5035C126.936 46.2847 126.618 46.0243 126.41 45.7222C126.207 45.4201 126.105 45.0608 126.105 44.6441C126.105 43.9514 126.397 43.3655 126.98 42.8863C127.569 42.4071 128.319 42.1675 129.23 42.1675C130.188 42.1675 130.964 42.4149 131.558 42.9097C132.157 43.4045 132.457 44.0373 132.457 44.8082H131.004C131.004 44.4123 130.834 44.0712 130.496 43.7847C130.162 43.4983 129.741 43.355 129.23 43.355C128.704 43.355 128.293 43.4696 127.996 43.6988C127.699 43.928 127.55 44.2274 127.55 44.5972C127.55 44.9462 127.688 45.2092 127.964 45.3863C128.241 45.5634 128.738 45.7326 129.457 45.8941C130.181 46.0556 130.767 46.2483 131.214 46.4722C131.662 46.6962 131.993 46.967 132.207 47.2847C132.425 47.5972 132.535 47.98 132.535 48.4332C132.535 49.1884 132.233 49.7951 131.629 50.2535C131.024 50.7066 130.241 50.9332 129.277 50.9332C128.6 50.9332 128.001 50.8134 127.48 50.5738C126.959 50.3342 126.55 50.0009 126.254 49.5738C125.962 49.1415 125.816 48.6754 125.816 48.1754H127.261C127.287 48.6597 127.48 49.0451 127.839 49.3316C128.204 49.6129 128.683 49.7535 129.277 49.7535C129.824 49.7535 130.261 49.6441 130.589 49.4254C130.923 49.2014 131.089 48.9045 131.089 48.5347ZM146.98 47.1675C146.839 48.3707 146.394 49.3004 145.644 49.9566C144.899 50.6076 143.907 50.9332 142.668 50.9332C141.324 50.9332 140.246 50.4514 139.433 49.4879C138.626 48.5243 138.222 47.2352 138.222 45.6207V44.5269C138.222 43.4696 138.41 42.5399 138.785 41.7379C139.165 40.9358 139.701 40.3212 140.394 39.8941C141.087 39.4618 141.889 39.2457 142.8 39.2457C144.009 39.2457 144.977 39.5842 145.707 40.2613C146.436 40.9332 146.86 41.8655 146.98 43.0582H145.472C145.342 42.1519 145.058 41.4957 144.621 41.0894C144.188 40.6832 143.582 40.48 142.8 40.48C141.842 40.48 141.089 40.8342 140.543 41.5425C140.001 42.2509 139.73 43.2587 139.73 44.566V45.6675C139.73 46.9019 139.988 47.8837 140.504 48.6129C141.019 49.342 141.741 49.7066 142.668 49.7066C143.501 49.7066 144.139 49.5191 144.582 49.1441C145.03 48.7639 145.326 48.105 145.472 47.1675H146.98ZM154.027 50.7769C153.944 50.6102 153.876 50.3134 153.824 49.8863C153.152 50.5842 152.35 50.9332 151.418 50.9332C150.584 50.9332 149.899 50.6988 149.363 50.23C148.832 49.7561 148.566 49.1571 148.566 48.4332C148.566 47.553 148.899 46.8707 149.566 46.3863C150.238 45.8967 151.181 45.6519 152.394 45.6519H153.8V44.9879C153.8 44.4826 153.649 44.0816 153.347 43.7847C153.045 43.4826 152.6 43.3316 152.011 43.3316C151.496 43.3316 151.063 43.4618 150.714 43.7222C150.366 43.9826 150.191 44.2977 150.191 44.6675H148.738C148.738 44.2457 148.886 43.8394 149.183 43.4488C149.485 43.053 149.892 42.7405 150.402 42.5113C150.918 42.2821 151.483 42.1675 152.097 42.1675C153.071 42.1675 153.834 42.4123 154.386 42.9019C154.938 43.3863 155.225 44.0556 155.246 44.9097V48.8004C155.246 49.5764 155.345 50.1936 155.543 50.6519V50.7769H154.027ZM151.629 49.6754C152.082 49.6754 152.511 49.5582 152.918 49.3238C153.324 49.0894 153.618 48.7847 153.8 48.4097V46.6754H152.668C150.897 46.6754 150.011 47.1936 150.011 48.23C150.011 48.6832 150.162 49.0373 150.464 49.2925C150.767 49.5477 151.155 49.6754 151.629 49.6754ZM158.879 42.3238L158.925 43.3863C159.571 42.5738 160.415 42.1675 161.457 42.1675C163.243 42.1675 164.144 43.1754 164.16 45.191V50.7769H162.714V45.1832C162.709 44.5738 162.569 44.1233 162.293 43.8316C162.022 43.5399 161.597 43.3941 161.019 43.3941C160.55 43.3941 160.139 43.5191 159.785 43.7691C159.431 44.0191 159.155 44.3472 158.957 44.7535V50.7769H157.511V42.3238H158.879ZM173.886 45.7066C172.6 45.3368 171.662 44.8837 171.074 44.3472C170.491 43.8056 170.199 43.1389 170.199 42.3472C170.199 41.4514 170.556 40.7118 171.269 40.1285C171.988 39.5399 172.92 39.2457 174.066 39.2457C174.847 39.2457 175.543 39.3967 176.152 39.6988C176.767 40.0009 177.241 40.4175 177.574 40.9488C177.912 41.48 178.082 42.0608 178.082 42.691H176.574C176.574 42.0035 176.355 41.4644 175.918 41.0738C175.48 40.678 174.863 40.48 174.066 40.48C173.326 40.48 172.748 40.6441 172.332 40.9722C171.92 41.2951 171.714 41.7457 171.714 42.3238C171.714 42.7873 171.91 43.1806 172.3 43.5035C172.696 43.8212 173.366 44.1129 174.308 44.3785C175.256 44.6441 175.996 44.9384 176.527 45.2613C177.063 45.579 177.459 45.9514 177.714 46.3785C177.975 46.8056 178.105 47.3082 178.105 47.8863C178.105 48.8082 177.746 49.5477 177.027 50.105C176.308 50.6571 175.347 50.9332 174.144 50.9332C173.363 50.9332 172.634 50.7847 171.957 50.4879C171.28 50.1858 170.756 49.7743 170.386 49.2535C170.022 48.7326 169.839 48.1415 169.839 47.48H171.347C171.347 48.1675 171.6 48.7118 172.105 49.1129C172.616 49.5087 173.295 49.7066 174.144 49.7066C174.936 49.7066 175.543 49.5451 175.964 49.2222C176.386 48.8993 176.597 48.4592 176.597 47.9019C176.597 47.3446 176.402 46.9149 176.011 46.6129C175.621 46.3056 174.912 46.0035 173.886 45.7066ZM185.027 50.7769C184.944 50.6102 184.876 50.3134 184.824 49.8863C184.152 50.5842 183.35 50.9332 182.418 50.9332C181.584 50.9332 180.899 50.6988 180.363 50.23C179.832 49.7561 179.566 49.1571 179.566 48.4332C179.566 47.553 179.899 46.8707 180.566 46.3863C181.238 45.8967 182.181 45.6519 183.394 45.6519H184.8V44.9879C184.8 44.4826 184.649 44.0816 184.347 43.7847C184.045 43.4826 183.6 43.3316 183.011 43.3316C182.496 43.3316 182.063 43.4618 181.714 43.7222C181.366 43.9826 181.191 44.2977 181.191 44.6675H179.738C179.738 44.2457 179.886 43.8394 180.183 43.4488C180.485 43.053 180.892 42.7405 181.402 42.5113C181.918 42.2821 182.483 42.1675 183.097 42.1675C184.071 42.1675 184.834 42.4123 185.386 42.9019C185.938 43.3863 186.225 44.0556 186.246 44.9097V48.8004C186.246 49.5764 186.345 50.1936 186.543 50.6519V50.7769H185.027ZM182.629 49.6754C183.082 49.6754 183.511 49.5582 183.918 49.3238C184.324 49.0894 184.618 48.7847 184.8 48.4097V46.6754H183.668C181.897 46.6754 181.011 47.1936 181.011 48.23C181.011 48.6832 181.162 49.0373 181.464 49.2925C181.767 49.5477 182.155 49.6754 182.629 49.6754ZM189.222 50.7769V43.441H187.886V42.3238H189.222V41.4566C189.222 40.5504 189.464 39.8498 189.949 39.355C190.433 38.8602 191.118 38.6129 192.004 38.6129C192.337 38.6129 192.668 38.6571 192.996 38.7457L192.918 39.9175C192.673 39.8707 192.412 39.8472 192.136 39.8472C191.668 39.8472 191.306 39.9852 191.05 40.2613C190.795 40.5321 190.668 40.9227 190.668 41.4332V42.3238H192.472V43.441H190.668V50.7769H189.222ZM197.394 50.9332C196.248 50.9332 195.316 50.5582 194.597 49.8082C193.879 49.053 193.519 48.0451 193.519 46.7847V46.5191C193.519 45.6806 193.678 44.9332 193.996 44.2769C194.319 43.6155 194.767 43.0998 195.339 42.73C195.918 42.355 196.543 42.1675 197.214 42.1675C198.313 42.1675 199.168 42.5295 199.777 43.2535C200.386 43.9774 200.691 45.0139 200.691 46.3629V46.9644H194.964C194.985 47.7977 195.227 48.4722 195.691 48.9879C196.16 49.4983 196.754 49.7535 197.472 49.7535C197.983 49.7535 198.415 49.6493 198.769 49.441C199.123 49.2326 199.433 48.9566 199.699 48.6129L200.582 49.3004C199.873 50.3889 198.811 50.9332 197.394 50.9332ZM197.214 43.355C196.631 43.355 196.142 43.5686 195.746 43.9957C195.35 44.4175 195.105 45.0113 195.011 45.7769H199.246V45.6675C199.204 44.9332 199.006 44.3655 198.652 43.9644C198.298 43.5582 197.819 43.355 197.214 43.355ZM208.074 49.5504H213.464V50.7769H206.566V39.4019H208.074V49.5504ZM216.519 50.7769H215.074V42.3238H216.519V50.7769ZM214.957 40.0816C214.957 39.8472 215.027 39.6493 215.168 39.4879C215.313 39.3264 215.527 39.2457 215.808 39.2457C216.089 39.2457 216.303 39.3264 216.449 39.4879C216.595 39.6493 216.668 39.8472 216.668 40.0816C216.668 40.316 216.595 40.5113 216.449 40.6675C216.303 40.8238 216.089 40.9019 215.808 40.9019C215.527 40.9019 215.313 40.8238 215.168 40.6675C215.027 40.5113 214.957 40.316 214.957 40.0816ZM219.55 50.7769V43.441H218.214V42.3238H219.55V41.4566C219.55 40.5504 219.793 39.8498 220.277 39.355C220.761 38.8602 221.446 38.6129 222.332 38.6129C222.665 38.6129 222.996 38.6571 223.324 38.7457L223.246 39.9175C223.001 39.8707 222.741 39.8472 222.464 39.8472C221.996 39.8472 221.634 39.9852 221.379 40.2613C221.123 40.5321 220.996 40.9227 220.996 41.4332V42.3238H222.8V43.441H220.996V50.7769H219.55ZM227.722 50.9332C226.576 50.9332 225.644 50.5582 224.925 49.8082C224.207 49.053 223.847 48.0451 223.847 46.7847V46.5191C223.847 45.6806 224.006 44.9332 224.324 44.2769C224.647 43.6155 225.095 43.0998 225.668 42.73C226.246 42.355 226.871 42.1675 227.543 42.1675C228.642 42.1675 229.496 42.5295 230.105 43.2535C230.714 43.9774 231.019 45.0139 231.019 46.3629V46.9644H225.293C225.313 47.7977 225.556 48.4722 226.019 48.9879C226.488 49.4983 227.082 49.7535 227.8 49.7535C228.311 49.7535 228.743 49.6493 229.097 49.441C229.451 49.2326 229.761 48.9566 230.027 48.6129L230.91 49.3004C230.201 50.3889 229.139 50.9332 227.722 50.9332ZM227.543 43.355C226.959 43.355 226.47 43.5686 226.074 43.9957C225.678 44.4175 225.433 45.0113 225.339 45.7769H229.574V45.6675C229.532 44.9332 229.334 44.3655 228.98 43.9644C228.626 43.5582 228.147 43.355 227.543 43.355Z" fill="#3F51B5"/>
</svg>
